<?xml version="1.0" encoding="UTF-8" standalone="no"?>
<svg xmlns:rdf="http://www.w3.org/1999/02/22-rdf-syntax-ns#" xmlns="http://www.w3.org/2000/svg" version="1.1" xml:space="preserve" height="128" width="128" enable-background="new 0 0 595.275 311.111" y="0px" x="0px" xmlns:cc="http://creativecommons.org/ns#" xmlns:dc="http://purl.org/dc/elements/1.1/" viewBox="0 0 128 128">
	<rect rx="20" ry="20" height="128" width="128" y="-.0000015" x="0" fill="#0082c9"/>
	<g transform="matrix(3.5714 0 0 3.5714 2080.8 -.77322)">
		<path fill="#FFFFFF" d="M-564.662,20.282c0,0.828,0.784,1.502,1.747,1.502h0.381v-3.002h-0.381
		C-563.879,18.783-564.662,19.457-564.662,20.282z M-560.976,17.5h2.166v5.771h-2.166V17.5z M-554.456,10.644H-571l-0.026,20.036
		h16.545c0.189,0,0.371-0.061,0.516-0.17c0.166-0.127,0.264-0.311,0.264-0.5v-6.891l-3.551,0.002v0.82
		c0,0.369-0.352,0.67-0.779,0.67h-3.725c-0.432,0-0.779-0.301-0.779-0.67v-0.818h-0.381c-1.822,0-3.307-1.271-3.307-2.84
		c0-1.569,1.484-2.843,3.307-2.843h0.381v-0.611c0-0.369,0.35-0.668,0.779-0.668h3.725c0.43,0,0.779,0.299,0.779,0.668v0.609
		l3.551-0.002l0.021-6.125C-553.678,10.944-554.027,10.644-554.456,10.644z M-557.252,18.782h4.938v2.998h-4.938V18.782z
		 M-554.988,5.594l-18.595,0.005c-1.941,0-3.521,1.358-3.521,3.025c0,0.041,0.013,0.079,0.013,0.118
		c-0.002,0.023-0.013,0.043-0.013,0.067v18.844c0,1.668,1.58,3.027,3.521,3.027h0.999l0.026-20.036h-0.999
		c-1.082,0-1.971-0.905-1.971-1.835s0.865-1.868,1.947-1.868l18.593-0.006c0.432,0,0.779-0.3,0.779-0.67
		C-554.209,5.894-554.557,5.594-554.988,5.594z M-555.388,8.138h-16.416v1.34h16.416c0.428,0,0.779-0.3,0.779-0.67
		S-554.961,8.138-555.388,8.138z"/>
	</g>
</svg>