<?xml version="1.0" encoding="UTF-8" standalone="no"?>
<svg xmlns:rdf="http://www.w3.org/1999/02/22-rdf-syntax-ns#" xmlns="http://www.w3.org/2000/svg" version="1.1" xml:space="preserve" height="16" width="16" enable-background="new 0 0 595.275 311.111" y="0px" x="0px" xmlns:cc="http://creativecommons.org/ns#" xmlns:dc="http://purl.org/dc/elements/1.1/" viewBox="0 0 16 16">
	<path fill="#1A171B" d="M13.5,0h-11C1.119,0,0,1.119,0,2.5v11C0,14.881,1.119,16,2.5,16h11c1.381,0,2.5-1.119,2.5-2.5v-11
	C16,1.119,14.881,0,13.5,0z M4.484,13.599H4.039c-0.866,0-1.572-0.606-1.572-1.351V3.835c0-0.01,0.005-0.02,0.005-0.03
	c0-0.018-0.005-0.034-0.005-0.053c0-0.744,0.706-1.35,1.572-1.35L12.34,2.4c0.191,0,0.348,0.135,0.348,0.3
	c0,0.165-0.155,0.299-0.348,0.299l-8.3,0.003c-0.483,0-0.869,0.418-0.869,0.833c0,0.416,0.396,0.819,0.879,0.819h0.446L4.484,13.599
	z M4.832,3.537h7.329c0.191,0,0.347,0.134,0.347,0.299c0,0.166-0.155,0.3-0.347,0.3H4.832V3.537z M12.914,13.3
	c0,0.085-0.044,0.167-0.117,0.224c-0.064,0.049-0.146,0.075-0.231,0.075H5.18l0.011-8.944h7.385c0.192,0,0.349,0.134,0.348,0.297
	l-0.01,2.735l-1.585,0.001V7.416c0-0.165-0.156-0.298-0.347-0.298H9.318c-0.191,0-0.348,0.133-0.348,0.298v0.273h-0.17
	c-0.814,0-1.477,0.569-1.477,1.269s0.663,1.268,1.477,1.268h0.17v0.365c0,0.165,0.154,0.3,0.348,0.3h1.664
	c0.188,0,0.347-0.135,0.347-0.3v-0.366l1.585-0.001V13.3z M10.633,7.716v2.576H9.666V7.716H10.633z M8.971,8.288v1.341h-0.17
	c-0.43,0-0.78-0.302-0.78-0.671s0.35-0.67,0.78-0.67H8.971z M13.533,9.627h-2.204V8.288h2.204V9.627z"/>
</svg>
