<?xml version="1.0" encoding="UTF-8" standalone="no"?>
<svg xmlns:rdf="http://www.w3.org/1999/02/22-rdf-syntax-ns#" xmlns="http://www.w3.org/2000/svg" version="1.1" xml:space="preserve" height="32" width="32" enable-background="new 0 0 595.275 311.111" y="0px" x="0px" xmlns:cc="http://creativecommons.org/ns#" xmlns:dc="http://purl.org/dc/elements/1.1/" viewBox="0 0 32 32">
	<rect rx="5" ry="5" height="32" width="32" y="-.0000052588" x="0" fill="#0082c9"/>
	<path fill="#FFFFFF" d="M16.046,18.146c0,0.828,0.784,1.502,1.747,1.502h0.381v-3.002h-0.381
		C16.83,16.646,16.046,17.32,16.046,18.146z M19.732,15.364h2.166v5.771h-2.166V15.364z M26.252,8.507H9.709L9.683,28.543h16.545
		c0.189,0,0.371-0.061,0.516-0.17c0.166-0.127,0.264-0.311,0.264-0.5v-6.891l-3.551,0.002v0.82c0,0.369-0.352,0.67-0.779,0.67h-3.725
		c-0.432,0-0.779-0.301-0.779-0.67v-0.818h-0.381c-1.822,0-3.307-1.271-3.307-2.84s1.484-2.843,3.307-2.843h0.381v-0.611
		c0-0.369,0.35-0.668,0.779-0.668h3.725c0.43,0,0.779,0.299,0.779,0.668v0.609l3.551-0.002l0.021-6.125
		C27.031,8.807,26.682,8.507,26.252,8.507z M23.457,16.645h4.938v2.998h-4.938V16.645z M25.721,3.457L7.126,3.462
		c-1.941,0-3.521,1.358-3.521,3.025c0,0.041,0.013,0.079,0.013,0.118C3.616,6.628,3.605,6.648,3.605,6.672v18.844
		c0,1.668,1.58,3.027,3.521,3.027h0.999L8.151,8.507H7.152c-1.082,0-1.971-0.905-1.971-1.835c0-0.93,0.865-1.868,1.947-1.868
		l18.593-0.006c0.432,0,0.779-0.3,0.779-0.67S26.152,3.457,25.721,3.457z M25.32,6.002H8.904v1.34H25.32
		c0.428,0,0.779-0.3,0.779-0.67S25.748,6.002,25.32,6.002z"/>
</svg>