<?xml version="1.0" encoding="UTF-8" standalone="no"?>
<svg xmlns:rdf="http://www.w3.org/1999/02/22-rdf-syntax-ns#" xmlns="http://www.w3.org/2000/svg" height="32" width="32" version="1.1" xmlns:cc="http://creativecommons.org/ns#" xmlns:xlink="http://www.w3.org/1999/xlink" xmlns:dc="http://purl.org/dc/elements/1.1/">
<g>
	<path d="M24.398,5.85H8.606v-1.5h15.792c0.414,0,0.75,0.336,0.75,0.75S24.813,5.85,24.398,5.85z"/>
	<path d="M7.882,7.154H6.922c-1.041,0-1.898-1.013-1.898-2.054c0-1.041,0.832-2.093,1.874-2.093L24.785,3
		c0.414,0,0.75-0.336,0.75-0.75c0-0.414-0.336-0.75-0.75-0.75L6.897,1.506c-1.868,0-3.388,1.519-3.388,3.387
		c0,0.045,0.012,0.087,0.013,0.131C3.52,5.05,3.509,5.073,3.509,5.1v21.096c0,1.867,1.52,3.389,3.388,3.389h0.959L7.882,7.154z"/>
	<rect x="22.605" y="16.263" width="4.75" height="3.358"/>
	<path d="M22.605,21.123v0.918c0,0.414-0.336,0.75-0.75,0.75h-3.582c-0.414,0-0.75-0.336-0.75-0.75v-0.916h-0.365
		c-1.753,0-3.18-1.426-3.18-3.18c0-1.753,1.426-3.179,3.18-3.179h0.365v-0.684c0-0.414,0.336-0.75,0.75-0.75h3.582
		c0.414,0,0.75,0.336,0.75,0.75v0.681l3.418-0.002l0.025-6.858c0-0.414-0.336-0.75-0.75-0.75H9.382l-0.025,22.43h15.917
		c0.182,0,0.359-0.066,0.498-0.189c0.16-0.143,0.252-0.348,0.252-0.561v-7.713L22.605,21.123z"/>
	<rect x="19.023" y="14.833" width="2.082" height="6.458"/>
	<path d="M15.479,17.945c0,0.926,0.753,1.68,1.68,1.68h0.365v-3.359h-0.365C16.232,16.266,15.479,17.02,15.479,17.945z"/>
</g>
<g>
	<path fill="#FFFFFF" d="M24.398,6.836H8.606v-1.5h15.792c0.414,0,0.75,0.336,0.75,0.75S24.813,6.836,24.398,6.836z"/>
	<path fill="#FFFFFF" d="M7.882,8.141H6.922c-1.041,0-1.898-1.013-1.898-2.054c0-1.041,0.832-2.093,1.874-2.093l17.888-0.006
		c0.414,0,0.75-0.336,0.75-0.75c0-0.414-0.336-0.75-0.75-0.75L6.897,2.493c-1.868,0-3.388,1.519-3.388,3.387
		c0,0.045,0.012,0.087,0.013,0.131C3.52,6.037,3.509,6.06,3.509,6.086v21.095c0,1.867,1.52,3.389,3.388,3.389h0.959L7.882,8.141z"/>
	<rect x="22.607" y="17.25" fill="#FFFFFF" width="4.75" height="3.357"/>
	<path fill="#FFFFFF" d="M22.607,22.109v0.918c0,0.414-0.336,0.75-0.75,0.75h-3.584c-0.414,0-0.75-0.336-0.75-0.75v-0.916h-0.365
		c-1.753,0-3.18-1.426-3.18-3.18s1.426-3.179,3.18-3.179h0.365v-0.684c0-0.414,0.336-0.75,0.75-0.75h3.584
		c0.414,0,0.75,0.336,0.75,0.75v0.682l3.416-0.002l0.025-6.858c0-0.414-0.336-0.75-0.75-0.75H9.382L9.356,30.57h15.917
		c0.184,0,0.361-0.066,0.498-0.189c0.16-0.143,0.252-0.348,0.252-0.561v-7.713L22.607,22.109z"/>
	<rect x="19.023" y="15.819" fill="#FFFFFF" width="2.084" height="6.458"/>
	<path fill="#FFFFFF" d="M15.479,18.932c0,0.926,0.753,1.68,1.68,1.68h0.365v-3.359h-0.365
		C16.232,17.252,15.479,18.006,15.479,18.932z"/>
</g>
</svg>
