<?xml version="1.0" encoding="UTF-8" standalone="no"?>
<svg xmlns="http://www.w3.org/2000/svg" height="32" width="32" version="1.1" viewBox="0 0 32 32">
 <g transform="translate(580.71 -1.5765)">
<path d="M-564.3,20.092c0,0.926,0.756,1.68,1.682,1.68h0.365v-3.359h-0.365
	C-563.544,18.412-564.3,19.166-564.3,20.092z M-560.753,16.978h2.084v6.46h-2.084V16.978z M-554.482,9.3h-15.914l-0.025,22.431
	h15.918c0.184,0,0.357-0.066,0.496-0.189c0.16-0.143,0.254-0.348,0.254-0.561v-7.713l-3.416,0.002v0.918
	c0,0.414-0.338,0.75-0.75,0.75h-3.584c-0.414,0-0.75-0.336-0.75-0.75v-0.916h-0.365c-1.754,0-3.182-1.426-3.182-3.18
	c0-1.756,1.428-3.181,3.182-3.181h0.365v-0.684c0-0.414,0.336-0.75,0.75-0.75h3.584c0.412,0,0.75,0.336,0.75,0.75v0.682l3.416-0.002
	l0.021-6.858C-553.732,9.636-554.067,9.3-554.482,9.3z M-557.169,18.41h4.75v3.357h-4.75V18.41z M-554.991,3.647l-17.891,0.006
	c-1.867,0-3.387,1.519-3.387,3.387c0,0.045,0.012,0.087,0.012,0.131c-0.002,0.026-0.012,0.049-0.012,0.075v21.096
	c0,1.865,1.52,3.389,3.387,3.389h0.961l0.025-22.43h-0.961c-1.041,0-1.896-1.013-1.896-2.054s0.832-2.093,1.873-2.093l17.889-0.006
	c0.414,0,0.75-0.336,0.75-0.75C-554.241,3.984-554.577,3.647-554.991,3.647z M-555.378,6.496h-15.793v1.5h15.793
	c0.412,0,0.75-0.336,0.75-0.75S-554.966,6.496-555.378,6.496z" fill="#FFF"/>
 </g>
</svg>
