<?xml version="1.0" encoding="UTF-8" standalone="no"?>
<!DOCTYPE svg PUBLIC "-//W3C//DTD SVG 1.1//EN" "http://www.w3.org/Graphics/SVG/1.1/DTD/svg11.dtd">
<svg xmlns="http://www.w3.org/2000/svg" width="16" height="16">
	<path d="M15.063,2.444v3.533H6.575V4.352L5.784,3.562l0.791-0.79V2.444H15.063z M5.025,8.381
		c0,0.984-0.693,1.804-1.618,2v1.729H2.513v-1.738C1.61,10.16,0.938,9.35,0.938,8.381c0-0.966,0.672-1.776,1.575-1.988V5.331
		C1.789,5.135,1.257,4.474,1.257,3.688c0-0.786,0.532-1.447,1.256-1.643V1.042h0.895v1.004C4.13,2.242,4.663,2.902,4.663,3.688
		c0,0.785-0.532,1.447-1.255,1.643v1.052C4.332,6.58,5.025,7.4,5.025,8.381z M2.96,4.412c0.399,0,0.724-0.324,0.724-0.724
		S3.359,2.964,2.96,2.964c-0.4,0-0.723,0.325-0.723,0.724S2.56,4.412,2.96,4.412z M3.85,8.381c0-0.479-0.388-0.868-0.868-0.868
		S2.113,7.902,2.113,8.381c0,0.48,0.388,0.87,0.868,0.87S3.85,8.861,3.85,8.381z M6.575,7.579l-0.791,0.79l0.791,0.791v2.586h8.488
		V7.251H6.575V7.579z M3.407,12.234H2.513v0.594h0.895V12.234z M3.407,13.031H2.513v0.438h0.895V13.031z M3.407,13.703H2.513v0.125
		h0.895V13.703z"/>
</svg>
